<svg width="93" height="55" viewBox="0 0 93 55" fill="none" xmlns="http://www.w3.org/2000/svg">
    <path d="M53.85 32.38H64.64C44 9.53674e-07 28.9 32.46 28.9 32.46H38.63C42.71 29.67 47.9 28.52 53.85 32.38Z" fill="#474845" />
    <path d="M10.36 18.7L28.79 2C28.79 2 34.23 -2.52 39.17 2.62C44.11 7.76 38.24 33.45 38.24 33.45L10.36 18.7Z" fill="#423D3E" />
    <path d="M5.19 23.46L25.92 5.05C25.92 5.05 32.06 0.0500016 38.14 4.98C44.22 9.91 38.73 36.7 38.73 36.7L5.19 23.46Z" fill="#67695F" />
    <path d="M81.73 18.2L62.37 2.2C62.37 2.2 56.67 -2.11 51.86 3.2C47.05 8.51 54 34 54 34L81.73 18.2Z" fill="#423D3E" />
    <path d="M87.16 22.76L65.4 5.17C65.4 5.17 59 0.399998 53 5.57C47 10.74 53.65 37.29 53.65 37.29L87.16 22.76Z" fill="#67695F" />
    <path d="M19.66 53.83C30.1092 53.83 38.58 45.3592 38.58 34.91C38.58 24.4608 30.1092 15.99 19.66 15.99C9.21076 15.99 0.73999 24.4608 0.73999 34.91C0.73999 45.3592 9.21076 53.83 19.66 53.83Z" fill="#F0E932" />
    <path d="M72.65 53.83C83.0992 53.83 91.57 45.3592 91.57 34.91C91.57 24.4608 83.0992 15.99 72.65 15.99C62.2008 15.99 53.73 24.4608 53.73 34.91C53.73 45.3592 62.2008 53.83 72.65 53.83Z" fill="#F0E932" />
    <path opacity="0.42" d="M5.76999 47.61L5.88999 47.75C12.67 55.21 24.42 55.59 32.13 48.58C39.84 41.57 40.59 29.86 33.81 22.39L33.69 22.26L5.76999 47.61Z" fill="white" />
    <path d="M19.66 53.83C30.1092 53.83 38.58 45.3592 38.58 34.91C38.58 24.4608 30.1092 15.99 19.66 15.99C9.21076 15.99 0.73999 24.4608 0.73999 34.91C0.73999 45.3592 9.21076 53.83 19.66 53.83Z" stroke="#D3C628" stroke-miterlimit="10" />
    <path opacity="0.42" d="M58.24 47L58.37 47.15C60.0274 49.0118 62.0374 50.5265 64.2838 51.6067C66.5301 52.6869 68.9684 53.3111 71.4575 53.4432C73.9466 53.5752 76.4372 53.2126 78.7853 52.3762C81.1334 51.5398 83.2924 50.2463 85.1375 48.5704C86.9826 46.8944 88.4772 44.8694 89.5348 42.6123C90.5925 40.3552 91.1922 37.9109 91.2994 35.4206C91.4066 32.9303 91.019 30.4434 90.1592 28.1038C89.2994 25.7642 87.9843 23.6182 86.29 21.79L86.16 21.66L58.24 47Z" fill="white" />
    <path d="M72.65 53.83C83.0992 53.83 91.57 45.3592 91.57 34.91C91.57 24.4608 83.0992 15.99 72.65 15.99C62.2008 15.99 53.73 24.4608 53.73 34.91C53.73 45.3592 62.2008 53.83 72.65 53.83Z" stroke="#D3C628" stroke-miterlimit="10" />
    <path d="M31.39 45.63C29.6625 47.2599 27.6665 48.5793 25.49 49.53C23.4176 50.4181 21.1728 50.8316 18.92 50.74C16.6408 50.6801 14.4021 50.1238 12.36 49.11C10.482 48.1681 8.80698 46.8669 7.42999 45.28C6.10145 43.7356 5.08289 41.9497 4.42999 40.02C3.76157 38.1136 3.4563 36.0988 3.52999 34.08C3.5971 31.8448 4.13911 29.6496 5.11999 27.64C6.03049 25.7438 7.30461 24.045 8.86999 22.64C10.4135 21.2736 12.2016 20.2116 14.14 19.51C16.1166 18.7758 18.2218 18.4513 20.3277 18.5562C22.4336 18.6611 24.4961 19.1931 26.39 20.12C28.4216 21.094 30.2452 22.4523 31.76 24.12L27.21 28.37C26.2492 27.3105 25.0996 26.439 23.82 25.8C22.6189 25.1965 21.303 24.8556 19.96 24.8C18.6492 24.7409 17.3407 24.959 16.12 25.44C14.9414 25.9023 13.8596 26.5806 12.93 27.44C12.0032 28.3066 11.2498 29.3417 10.71 30.49C9.60192 32.8964 9.49403 35.6441 10.41 38.13C10.8665 39.3115 11.5454 40.3944 12.41 41.32C13.282 42.2631 14.3315 43.025 15.4983 43.5621C16.6651 44.0992 17.9264 44.4009 19.21 44.45C20.6547 44.5214 22.0954 44.2436 23.41 43.64C24.8004 42.9887 26.0768 42.1175 27.19 41.06L31.39 45.63Z" fill="#231F20" />
    <path d="M72.81 51.17C69.7107 51.18 66.6742 50.2968 64.0637 48.6263C61.4532 46.9557 59.3793 44.5684 58.09 41.75C57.1584 39.6653 56.691 37.4031 56.72 35.12C56.7087 33.0185 57.1237 30.9365 57.94 29C58.7249 27.0831 59.8611 25.3297 61.29 23.83C62.7475 22.3291 64.4786 21.1207 66.39 20.27C68.3488 19.4149 70.4596 18.9627 72.5968 18.9404C74.734 18.9181 76.8538 19.326 78.83 20.14C80.7521 20.9241 82.5068 22.0679 84 23.51C85.5066 24.9747 86.7215 26.7121 87.58 28.63C88.4921 30.6709 88.9526 32.8847 88.93 35.12C88.9269 37.1783 88.5227 39.2163 87.74 41.12C86.1644 45.0034 83.1418 48.1228 79.31 49.82C77.2643 50.7282 75.0481 51.1885 72.81 51.17V51.17ZM72.81 25.25C71.5021 25.237 70.2054 25.4923 69 26C67.8306 26.4954 66.7679 27.2118 65.87 28.11C64.9676 29.0179 64.2479 30.0907 63.75 31.27C63.2407 32.489 62.9855 33.799 63 35.12C62.9953 36.4311 63.2644 37.7288 63.79 38.93C64.2961 40.0733 65.0079 41.1139 65.89 42C66.7783 42.908 67.8346 43.6347 69 44.14C70.2076 44.6417 71.5023 44.9 72.81 44.9C74.1176 44.9 75.4124 44.6417 76.62 44.14C77.7821 43.6466 78.8381 42.9336 79.73 42.04C80.62 41.1451 81.3325 40.0899 81.83 38.93C82.3412 37.7253 82.5998 36.4286 82.59 35.12C82.5987 33.802 82.3295 32.497 81.8 31.29C81.2939 30.1175 80.579 29.0468 79.69 28.13C78.7993 27.2228 77.7393 26.4991 76.57 26C75.3815 25.4943 74.1015 25.239 72.81 25.25Z" fill="black" />
</svg>