<svg xmlns="http://www.w3.org/2000/svg" viewBox="0 0 149.75 149.75"><defs><style>.a,.f{fill:#fff;}.a{stroke:#000;stroke-width:0.75px;}.a,.g{stroke-miterlimit:10;}.b{fill:#464744;}.c{fill:#423d3e;}.d{fill:#66685e;}.e{fill:#f1e932;}.f{opacity:0.42;}.g{fill:none;stroke:#d6c812;}.h{fill:#231f20;}</style></defs><title>CO_logo</title><rect class="a" x="0.38" y="0.38" width="149" height="149"/><path class="b" d="M106.6,104.26l13.85-.05c-26.52-41.56-45.86.15-45.86.15l12.48,0C92.31,100.78,99,99.31,106.6,104.26Z" transform="translate(-21.63 -25.62)"/><path class="c" d="M50.8,86.71,74.45,65.27s7-5.81,13.31.79-1.19,39.55-1.19,39.55Z" transform="translate(-21.63 -25.62)"/><path class="d" d="M44.17,92.82,70.77,69.2s7.87-6.44,15.68-.1.75,40.7.75,40.7Z" transform="translate(-21.63 -25.62)"/><path class="c" d="M142.38,86.07,117.53,65.56s-7.31-5.53-13.48,1.31,2.78,39.48,2.78,39.48Z" transform="translate(-21.63 -25.62)"/><path class="d" d="M149.34,91.91,121.42,69.35s-8.24-6.13-15.91.51.84,40.7.84,40.7Z" transform="translate(-21.63 -25.62)"/><circle class="e" cx="41.11" cy="81.88" r="24.27"/><circle class="e" cx="109.1" cy="81.88" r="24.27"/><path class="f" d="M44.92,123.79l.15.18c8.7,9.58,23.77,10.06,33.66,1.08s10.86-24,2.16-33.61l-.16-.17Z" transform="translate(-21.63 -25.62)"/><circle class="g" cx="41.11" cy="81.88" r="24.27"/><path class="f" d="M112.24,123.06l.16.19a24.2,24.2,0,1,0,35.82-32.54l-.17-.17Z" transform="translate(-21.63 -25.62)"/><circle class="g" cx="109.1" cy="81.88" r="24.27"/><path class="h" d="M77.72,121.25a26.71,26.71,0,0,1-7.58,5,19.29,19.29,0,0,1-8.42,1.55,20,20,0,0,1-8.43-2.1A20.76,20.76,0,0,1,42,106.42a20,20,0,0,1,2-8.25,20.64,20.64,0,0,1,4.82-6.39,21,21,0,0,1,6.75-4,20,20,0,0,1,15.72.78,22.22,22.22,0,0,1,6.89,5.16l-5.83,5.45A15.1,15.1,0,0,0,68,95.86,12.14,12.14,0,0,0,63,94.57a11.83,11.83,0,0,0-4.93.82A13,13,0,0,0,54,98a12.72,12.72,0,0,0-2.85,3.91A12.58,12.58,0,0,0,50,106.73a12.14,12.14,0,0,0,.79,4.93,12.83,12.83,0,0,0,2.53,4.09,12.56,12.56,0,0,0,3.89,2.84A12.15,12.15,0,0,0,62,119.77a11.72,11.72,0,0,0,5.4-1,18.64,18.64,0,0,0,4.84-3.31Z" transform="translate(-21.63 -25.62)"/><path d="M130.93,128.36a21,21,0,0,1-14.2-5.58A20.56,20.56,0,0,1,111.84,100a21.25,21.25,0,0,1,4.31-6.63,20.72,20.72,0,0,1,6.54-4.56,19.77,19.77,0,0,1,8.24-1.71,20.17,20.17,0,0,1,7.72,1.53,20.8,20.8,0,0,1,11.19,10.85,19.81,19.81,0,0,1,1.74,8.32A20.19,20.19,0,0,1,150,115.5a20.73,20.73,0,0,1-10.81,11.16A20.1,20.1,0,0,1,130.93,128.36Zm0-33.25a12.31,12.31,0,0,0-4.89,1,12.73,12.73,0,0,0-6.74,6.77,12.51,12.51,0,0,0-1,4.91,12,12,0,0,0,1,4.89,13,13,0,0,0,2.72,4,12.59,12.59,0,0,0,4,2.69,12.69,12.69,0,0,0,9.78,0,12.6,12.6,0,0,0,6.68-6.68,12.56,12.56,0,0,0,0-9.8,13.66,13.66,0,0,0-2.72-4,12.51,12.51,0,0,0-4-2.72A12.23,12.23,0,0,0,130.93,95.11Z" transform="translate(-21.63 -25.62)"/></svg>