<?xml version="1.0" encoding="UTF-8"?>
<svg width="143px" height="80px" viewBox="0 0 143 80" version="1.1" xmlns="http://www.w3.org/2000/svg" xmlns:xlink="http://www.w3.org/1999/xlink">
    <!-- Generator: Sketch 60.1 (88133) - https://sketch.com -->
    <title>Group</title>
    <desc>Created with Sketch.</desc>
    <g id="Page-1" stroke="none" stroke-width="1" fill="none" fill-rule="evenodd">
        <g id="Group" transform="translate(1.000000, 0.000000)">
            <rect id="Rectangle" fill="#3D3916" fill-rule="nonzero" x="51.46" y="23.0344444" width="22.96" height="14.66"></rect>
            <path d="M12.12,28.2744444 L38.02,3.76444444 C38.02,3.76444444 49.57,-4.70555556 60.22,3.76444444 L52.52,46.5744444 L12.12,28.2744444 Z" id="Path" fill="#3D3916" fill-rule="nonzero"></path>
            <rect id="Rectangle" fill="#3D3916" fill-rule="nonzero" x="53.87" y="36.7144444" width="20.55" height="13.68"></rect>
            <path d="M57.05,33.7544444 C57.05,33.7544444 63.34,40.7044444 63.13,48.0944444 L68.56,44.1844444 C68.56,44.1844444 71.56,44.4044444 72.68,44.6144444 L72.68,25.2844444 L70.29,25.2844444 L57.05,33.7544444 Z" id="Path" fill="#3D3916" fill-rule="nonzero"></path>
            <path d="M54.37,22.3244444 L56.37,1.32444444 C56.37,1.32444444 63.46,4.53444444 64.46,10.2544444 L66.22,38.9844444 L54.37,22.3244444 Z" id="Path" fill="#3D3916" fill-rule="nonzero"></path>
            <circle id="Oval" stroke="#D6C812" fill="#F1E932" fill-rule="nonzero" cx="28.56" cy="50.8644444" r="28.56"></circle>
            <rect id="Rectangle" fill="#3D3916" fill-rule="nonzero" transform="translate(76.890000, 30.354444) rotate(-180.000000) translate(-76.890000, -30.354444) " x="65.41" y="23.0244444" width="22.96" height="14.66"></rect>
            <path d="M127.7,28.2744444 L101.81,3.76444444 C101.81,3.76444444 90.25,-4.70555556 79.6,3.76444444 L87.3,46.5744444 L127.7,28.2744444 Z" id="Path" fill="#3D3916" fill-rule="nonzero"></path>
            <rect id="Rectangle" fill="#3D3916" fill-rule="nonzero" transform="translate(75.685000, 43.554444) rotate(-180.000000) translate(-75.685000, -43.554444) " x="65.41" y="36.7144444" width="20.55" height="13.68"></rect>
            <path d="M82.77,33.7544444 C82.77,33.7544444 76.46,40.7044444 76.69,48.0744444 L71.26,44.1644444 C71.26,44.1644444 68.26,44.3844444 67.14,44.5944444 L67.14,25.2844444 L69.53,25.2844444 L82.77,33.7544444 Z" id="Path" fill="#3D3916" fill-rule="nonzero"></path>
            <path d="M85.46,22.3244444 L83.46,1.32444444 C83.46,1.32444444 76.4,4.49444444 75.39,10.2144444 L73.63,38.9444444 L85.46,22.3244444 Z" id="Path" fill="#3D3916" fill-rule="nonzero"></path>
            <circle id="Oval" stroke="#D6C812" fill="#F1E932" fill-rule="nonzero" cx="112.31" cy="50.8644444" r="28.56"></circle>
            <polygon id="Path" fill="#FFFFFF" fill-rule="nonzero" points="60.28 43.5744444 63.1 34.0744444 75.89 34.0744444 79.47 43.5744444"></polygon>
            <path d="M48.04,65.5244444 C45.6569002,68.2085102 42.8287953,70.461522 39.68,72.1844444 C36.6912292,73.8033791 33.3753945,74.7263433 29.98,74.8844444 C26.5387004,75.1134434 23.0894028,74.5772654 19.88,73.3144444 C11.0374064,69.7786009 5.057013,61.4247878 4.56,51.9144444 C4.35916769,48.5644455 4.87391299,45.2100787 6.07,42.0744444 C7.19571677,39.1055918 8.89466006,36.3872826 11.07,34.0744444 C13.202799,31.8119144 15.7440832,29.9729611 18.56,28.6544444 C24.3686301,25.894236 31.054416,25.6340324 37.06,27.9344444 C40.2530684,29.1280691 43.1815012,30.9354081 45.68,33.2544444 L39.42,40.2544444 C37.8268723,38.7969251 35.9795483,37.6444661 33.97,36.8544444 C30.2021851,35.3490961 25.9709525,35.52373 22.34,37.3344444 C20.6325151,38.1904339 19.0969836,39.353099 17.81,40.7644444 C16.5312919,42.1915235 15.5398492,43.8518505 14.89,45.6544444 C13.5509371,49.4020118 13.7559825,53.5281025 15.46,57.1244444 C17.1375185,60.5854083 20.0964475,63.2574109 23.71,64.5744444 C25.5632526,65.2589726 27.5374691,65.555105 29.51,65.4444444 C31.69137,65.3489112 33.8192481,64.738988 35.72,63.6644444 C37.7176364,62.4921751 39.5166605,61.0104274 41.05,59.2744444 L48.04,65.5244444 Z" id="Path" fill="#231F20" fill-rule="nonzero"></path>
            <path d="M108.37,71.6244444 C108.37,71.6244444 132.53,73.6244444 131.37,48.8644444" id="Path" stroke="#FFFFFF" stroke-width="4"></path>
            <circle id="Oval" fill="#231F20" fill-rule="nonzero" cx="112.47" cy="51.1244444" r="5.99"></circle>
        </g>
    </g>
</svg>