<?xml version="1.0" standalone="no"?>
<!DOCTYPE svg PUBLIC "-//W3C//DTD SVG 20010904//EN"
 "http://www.w3.org/TR/2001/REC-SVG-20010904/DTD/svg10.dtd">
<svg version="1.0" xmlns="http://www.w3.org/2000/svg"
 width="1144.000000pt" height="1144.000000pt" viewBox="0 0 1144.000000 1144.000000"
 preserveAspectRatio="xMidYMid meet">
<metadata>
Created by potrace 1.11, written by Peter Selinger 2001-2013
</metadata>
<g transform="translate(0.000000,1144.000000) scale(0.100000,-0.100000)"
fill="#000000" stroke="none">
<path d="M3920 8913 c-234 -25 -525 -124 -729 -250 -43 -27 -348 -308 -942
-869 -482 -456 -878 -832 -878 -836 -1 -4 29 7 67 24 93 43 308 112 422 137
322 69 688 69 1010 0 328 -71 697 -250 964 -468 107 -88 251 -233 339 -342
305 -381 475 -822 512 -1331 l7 -88 1023 0 1023 0 7 88 c43 596 273 1109 675
1512 311 311 724 539 1140 629 403 86 833 66 1224 -59 66 -22 121 -38 122 -37
6 6 -1694 1604 -1732 1629 -91 57 -269 140 -383 178 -196 65 -301 83 -496 84
-192 1 -300 -17 -474 -80 -260 -94 -515 -305 -634 -525 -67 -122 -73 -161
-102 -639 -14 -239 -28 -470 -31 -512 l-7 -78 -373 0 -373 0 -5 53 c-3 28 -17
252 -31 497 -15 265 -32 471 -41 510 -51 225 -246 451 -534 620 -196 115 -520
179 -770 153z m2226 -2721 c11 -8 285 -729 284 -749 0 -10 -158 -13 -758 -13
-417 0 -761 2 -764 5 -7 8 214 749 226 757 6 4 234 8 506 8 272 0 500 -4 506
-8z"/>
<path d="M2155 6798 c-421 -47 -844 -256 -1157 -571 -577 -581 -720 -1466
-358 -2212 104 -215 225 -380 407 -556 328 -316 730 -496 1183 -528 509 -36
964 115 1400 466 102 82 293 269 288 281 -1 5 -127 119 -278 255 l-275 245
-105 -101 c-281 -271 -549 -390 -880 -390 -316 -1 -604 118 -830 343 -464 460
-462 1213 4 1675 322 318 768 425 1188 285 149 -50 330 -152 442 -249 40 -35
51 -40 61 -29 108 113 484 545 482 552 -6 17 -164 143 -262 208 -183 122 -470
245 -678 292 -184 42 -441 56 -632 34z"/>
<path d="M8963 5296 c-121 -30 -247 -125 -305 -233 -57 -103 -73 -241 -43
-358 65 -249 331 -405 580 -340 85 23 152 62 221 130 188 186 188 483 0 671
-122 122 -288 170 -453 130z"/>
</g>
</svg>
