<svg width="353" height="56" viewBox="0 0 353 56" fill="none" xmlns="http://www.w3.org/2000/svg">
    <path d="M53.62 33.17H64.42C43.75 0.779995 28.67 33.28 28.67 33.28H38.4C42.49 30.45 47.67 29.31 53.62 33.17Z" fill="#474845" />
    <path d="M10.13 19.49L28.56 2.78C28.56 2.78 34 -1.75 38.94 3.39C43.88 8.53 38 34.22 38 34.22L10.13 19.49Z" fill="#423D3E" />
    <path d="M5 24.25L25.7 5.84C25.7 5.84 31.83 0.840003 37.92 5.77C44.01 10.7 38.51 37.49 38.51 37.49L5 24.25Z" fill="#67695F" />
    <path d="M81.51 19L62.14 3C62.14 3 56.45 -1.31 51.64 4C46.83 9.31 53.8 34.8 53.8 34.8L81.51 19Z" fill="#423D3E" />
    <path d="M86.94 23.55L65.17 6C65.17 6 58.75 1.22 52.77 6.39999C46.79 11.58 53.43 38.12 53.43 38.12L86.94 23.55Z" fill="#67695F" />
    <path d="M117.08 52.07L102.89 20.21H109.74L118.35 39.5C119.757 36.28 121.177 33.0567 122.61 29.83C124.043 26.6033 125.477 23.3967 126.91 20.21H133.76L119.7 52.07H117.08Z" fill="#231F20" />
    <path d="M151.88 51.76V20.21H158.1V51.76H151.88Z" fill="#231F20" />
    <path d="M181.54 51.76V20.21H192.54C194.704 20.1778 196.853 20.5649 198.87 21.35C200.686 22.0747 202.323 23.1833 203.67 24.6C205.019 26.0433 206.063 27.7439 206.74 29.6C207.464 31.6546 207.816 33.8218 207.78 36C207.799 38.115 207.433 40.2159 206.7 42.2C206.013 44.0514 204.97 45.7501 203.63 47.2C202.279 48.6316 200.644 49.7657 198.83 50.53C196.826 51.366 194.671 51.7813 192.5 51.75L181.54 51.76ZM187.76 45.49H192.5C193.73 45.5018 194.95 45.2566 196.08 44.77C197.158 44.3024 198.131 43.6222 198.94 42.77C199.763 41.9035 200.408 40.8844 200.84 39.77C201.734 37.3705 201.734 34.7295 200.84 32.33C199.985 30.0828 198.273 28.2667 196.08 27.28C194.954 26.7775 193.733 26.5251 192.5 26.54H187.76V45.49Z" fill="#231F20" />
    <path d="M19.44 54.62C29.8892 54.62 38.36 46.1492 38.36 35.7C38.36 25.2508 29.8892 16.78 19.44 16.78C8.99076 16.78 0.519989 25.2508 0.519989 35.7C0.519989 46.1492 8.99076 54.62 19.44 54.62Z" fill="#F0E932" />
    <path d="M251.53 23.1L240.21 38.85C240.081 38.9838 239.906 39.0626 239.72 39.07H239.64C239.547 39.0764 239.453 39.0597 239.367 39.0213C239.282 38.983 239.207 38.9241 239.15 38.85L227.79 23.05V51.32C227.794 51.3926 227.783 51.4652 227.759 51.5336C227.734 51.6019 227.696 51.6646 227.646 51.7178C227.597 51.771 227.537 51.8137 227.471 51.8433C227.404 51.8729 227.333 51.8888 227.26 51.89C227.108 51.89 226.962 51.8303 226.853 51.7237C226.745 51.6171 226.683 51.4721 226.68 51.32V21.46C226.689 21.3093 226.754 21.1672 226.86 21.0604C226.967 20.9536 227.109 20.8895 227.26 20.88C227.302 20.8638 227.348 20.8638 227.39 20.88C227.537 20.9031 227.675 20.9652 227.79 21.06L239.68 37.57L251.57 21.1C251.662 20.9959 251.791 20.9314 251.93 20.92C251.95 20.9109 251.973 20.9062 251.995 20.9062C252.017 20.9062 252.04 20.9109 252.06 20.92C252.213 20.9226 252.359 20.9845 252.467 21.0927C252.576 21.2009 252.637 21.347 252.64 21.5V51.32C252.641 51.3961 252.627 51.4717 252.599 51.5421C252.57 51.6126 252.527 51.6764 252.473 51.7298C252.418 51.7831 252.354 51.8248 252.283 51.8524C252.212 51.8799 252.136 51.8927 252.06 51.89C251.916 51.8799 251.781 51.8154 251.683 51.7095C251.584 51.6037 251.53 51.4645 251.53 51.32V23.1Z" fill="black" stroke="black" stroke-miterlimit="10" />
    <path d="M284 43.46H268.48L265.48 51.41C265.455 51.5221 265.393 51.6225 265.305 51.6951C265.216 51.7677 265.105 51.8082 264.99 51.81C264.917 51.8046 264.843 51.8046 264.77 51.81C264.636 51.7451 264.533 51.6302 264.482 51.49C264.432 51.3499 264.438 51.1955 264.5 51.06L275.69 21.24C275.723 21.1197 275.8 21.0161 275.905 20.9495C276.011 20.8829 276.137 20.8581 276.26 20.88C276.379 20.8864 276.495 20.9228 276.596 20.9857C276.697 21.0486 276.781 21.1361 276.84 21.24L288.05 51C288.107 51.1407 288.106 51.298 288.048 51.4382C287.99 51.5784 287.879 51.6904 287.74 51.75C287.65 51.75 287.61 51.75 287.56 51.75C287.439 51.7352 287.324 51.691 287.225 51.6212C287.126 51.5515 287.045 51.4583 286.99 51.35L284 43.46ZM268.92 42.31H283.56L276.24 22.88L268.92 42.31Z" fill="black" stroke="black" stroke-miterlimit="10" />
    <path d="M300.57 21.41C300.573 21.257 300.635 21.1109 300.743 21.0027C300.851 20.8945 300.997 20.8326 301.15 20.83H310.24C311.399 20.7906 312.553 20.9847 313.636 21.4009C314.718 21.8171 315.705 22.4468 316.538 23.2526C317.372 24.0583 318.035 25.0235 318.488 26.0908C318.941 27.1581 319.174 28.3056 319.174 29.465C319.174 30.6244 318.941 31.7719 318.488 32.8392C318.035 33.9064 317.372 34.8717 316.538 35.6774C315.705 36.4832 314.718 37.1129 313.636 37.5291C312.553 37.9453 311.399 38.1394 310.24 38.1H301.68V51.32C301.684 51.3926 301.673 51.4652 301.649 51.5335C301.624 51.6019 301.586 51.6646 301.536 51.7178C301.487 51.771 301.427 51.8137 301.361 51.8433C301.294 51.8729 301.223 51.8888 301.15 51.89C300.999 51.8875 300.854 51.827 300.746 51.7209C300.638 51.6148 300.575 51.4713 300.57 51.32V21.41ZM310.24 36.94C311.223 36.9466 312.197 36.7588 313.106 36.3873C314.016 36.0159 314.843 35.4682 315.54 34.7757C316.237 34.0832 316.791 33.2597 317.168 32.3526C317.546 31.4454 317.74 30.4726 317.74 29.49C317.745 27.4946 316.958 25.5788 315.552 24.1631C314.146 22.7475 312.235 21.9479 310.24 21.94H301.68V36.94H310.24Z" fill="black" stroke="black" stroke-miterlimit="10" />
    <path d="M329.33 46.61C329.429 46.5261 329.555 46.4801 329.685 46.4801C329.815 46.4801 329.941 46.5261 330.04 46.61C332.48 48.61 336.52 50.87 340.82 50.87C343.434 50.9247 345.997 50.1473 348.14 48.65C349.019 48.0886 349.751 47.3241 350.273 46.4209C350.795 45.5176 351.092 44.5022 351.14 43.46C351.122 42.4894 350.85 41.5405 350.352 40.7073C349.854 39.8741 349.146 39.1856 348.3 38.71C345.993 37.3277 343.427 36.4358 340.76 36.09H340.67C338.068 35.7121 335.566 34.8215 333.31 33.47C332.396 32.9416 331.634 32.1861 331.098 31.2769C330.562 30.3676 330.27 29.3353 330.25 28.28C330.25 23.84 335.08 20.47 340.76 20.47C344.76 20.47 347.86 22.47 350.35 24.11C350.407 24.1461 350.457 24.1938 350.495 24.25C350.533 24.3062 350.559 24.3697 350.571 24.4364C350.583 24.5032 350.581 24.5717 350.566 24.6378C350.55 24.7038 350.521 24.7659 350.48 24.82C350.407 24.9245 350.296 24.9966 350.171 25.0208C350.046 25.0451 349.917 25.0197 349.81 24.95C347.29 23.31 344.49 21.49 340.81 21.49C338.395 21.4429 336.024 22.1412 334.02 23.49C333.226 24.0115 332.567 24.714 332.098 25.5398C331.629 26.3656 331.362 27.2911 331.32 28.24C331.342 29.1289 331.594 29.997 332.051 30.7594C332.508 31.5219 333.156 32.1526 333.93 32.59C336.076 33.8727 338.455 34.7157 340.93 35.07H341.02C343.819 35.4961 346.513 36.446 348.96 37.87C349.943 38.4405 350.762 39.2545 351.338 40.2337C351.914 41.2129 352.228 42.324 352.25 43.46C352.2 48.25 347.05 51.89 340.93 51.89C336.27 51.89 332.06 49.45 329.53 47.41C329.461 47.3741 329.4 47.3239 329.352 47.2627C329.303 47.2015 329.268 47.1308 329.25 47.0551C329.231 46.9795 329.228 46.9006 329.242 46.8239C329.256 46.7472 329.286 46.6742 329.33 46.61V46.61Z" fill="black" stroke="black" stroke-miterlimit="10" />
    <path d="M72.43 54.62C82.8792 54.62 91.35 46.1492 91.35 35.7C91.35 25.2508 82.8792 16.78 72.43 16.78C61.9808 16.78 53.51 25.2508 53.51 35.7C53.51 46.1492 61.9808 54.62 72.43 54.62Z" fill="#F0E932" />
    <path opacity="0.42" d="M5.54999 48.39C5.58453 48.4411 5.62479 48.4881 5.66999 48.53C12.45 56 24.19 56.37 31.9 49.37C39.61 42.37 40.37 30.64 33.59 23.18L33.46 23.05L5.54999 48.39Z" fill="white" />
    <path d="M19.44 54.62C29.8892 54.62 38.36 46.1492 38.36 35.7C38.36 25.2508 29.8892 16.78 19.44 16.78C8.99076 16.78 0.519989 25.2508 0.519989 35.7C0.519989 46.1492 8.99076 54.62 19.44 54.62Z" stroke="#D3C628" stroke-miterlimit="10" />
    <path opacity="0.42" d="M58 47.82L58.12 47.97C59.7774 49.8318 61.7874 51.3465 64.0338 52.4267C66.2802 53.5069 68.7184 54.1311 71.2075 54.2632C73.6966 54.3952 76.1872 54.0326 78.5353 53.1962C80.8834 52.3598 83.0424 51.0663 84.8875 49.3904C86.7326 47.7144 88.2272 45.6894 89.2848 43.4323C90.3425 41.1752 90.9422 38.7309 91.0494 36.2406C91.1566 33.7503 90.7691 31.2634 89.9092 28.9238C89.0494 26.5842 87.7343 24.4382 86.04 22.61L85.91 22.47L58 47.82Z" fill="white" />
    <path d="M72.43 54.62C82.8792 54.62 91.35 46.1492 91.35 35.7C91.35 25.2508 82.8792 16.78 72.43 16.78C61.9808 16.78 53.51 25.2508 53.51 35.7C53.51 46.1492 61.9808 54.62 72.43 54.62Z" stroke="#D3C628" stroke-miterlimit="10" />
    <path d="M31.17 46.42C29.4363 48.0468 27.4376 49.3658 25.26 50.32C23.19 51.2044 20.9493 51.6177 18.7 51.53C16.4163 51.4716 14.1733 50.9117 12.13 49.89C10.2503 48.9551 8.57468 47.6567 7.20001 46.07C4.5338 42.9577 3.13778 38.9553 3.29001 34.86C3.35511 32.6289 3.89367 30.4372 4.87 28.43C5.78212 26.5322 7.05987 24.833 8.63001 23.43C10.1694 22.0607 11.9542 20.9953 13.89 20.29C15.8665 19.5539 17.9725 19.2292 20.079 19.3358C22.1854 19.4424 24.2479 19.9781 26.14 20.91C28.1737 21.8804 29.9979 23.2393 31.51 24.91L27 29.2C26.035 28.1409 24.8822 27.2695 23.6 26.63C22.3995 26.0248 21.0833 25.6838 19.74 25.63C18.429 25.5667 17.1196 25.7849 15.9 26.27C14.7215 26.7323 13.6396 27.4106 12.71 28.27C11.7628 29.1493 10.9986 30.2071 10.4615 31.3827C9.92432 32.5582 9.62477 33.8283 9.58001 35.12C9.51926 36.4258 9.73038 37.73 10.2 38.95C11.0997 41.335 12.8932 43.2756 15.2 44.36C16.3806 44.9212 17.6637 45.2343 18.97 45.28C20.4175 45.3449 21.8599 45.0674 23.18 44.47C24.5645 43.8136 25.8368 42.9429 26.95 41.89L31.17 46.42Z" fill="#231F20" />
    <path d="M72.58 52C70.5599 51.9968 68.5584 51.6135 66.68 50.87C64.7751 50.1261 63.0253 49.0342 61.52 47.65C59.1533 45.4226 57.521 42.5272 56.8404 39.3492C56.1598 36.1712 56.4631 32.8613 57.71 29.86C58.4974 27.945 59.6371 26.1947 61.07 24.7C62.5194 23.194 64.2482 21.9848 66.16 21.14C68.1798 20.2413 70.3694 19.7877 72.58 19.81C74.6396 19.8105 76.6787 20.2184 78.58 21.01C80.4902 21.7818 82.2349 22.9121 83.72 24.34C85.2319 25.8002 86.4475 27.5387 87.3 29.46C88.2211 31.4983 88.6853 33.7134 88.66 35.95C88.6584 38.0095 88.2507 40.0484 87.46 41.95C85.8844 45.8334 82.8618 48.9528 79.03 50.65C77.0001 51.5524 74.8014 52.0126 72.58 52ZM72.58 26.08C71.2745 26.069 69.9808 26.3277 68.78 26.84C66.4058 27.8476 64.5186 29.742 63.52 32.12C63.0097 33.332 62.7511 34.635 62.76 35.95C62.7502 37.2617 63.0195 38.5604 63.55 39.76C64.0566 40.9198 64.7756 41.9746 65.67 42.87C66.5632 43.7594 67.619 44.469 68.78 44.96C69.9843 45.468 71.278 45.7297 72.585 45.7297C73.892 45.7297 75.1858 45.468 76.39 44.96C78.7364 43.9695 80.605 42.1045 81.6 39.76C82.1149 38.5523 82.3804 37.2529 82.3804 35.94C82.3804 34.6271 82.1149 33.3277 81.6 32.12C81.0892 30.9477 80.371 29.8772 79.48 28.96C78.5917 28.0571 77.5352 27.3368 76.37 26.84C75.1785 26.3005 73.8879 26.0144 72.58 26V26.08Z" fill="black" />
</svg>