<svg xmlns="http://www.w3.org/2000/svg" viewBox="0 0 507.72 79.92"><defs><style>.a{fill:#231f20;}.b{fill:#3d3916;}.c{fill:#f1e932;stroke:#d6c812;}.c,.e,.f{stroke-miterlimit:10;}.d{fill:#fff;}.e{fill:none;stroke:#fff;stroke-width:4px;}.f{stroke:#000;}</style></defs><title>COVIDbino</title><path class="a" d="M231.51,121.51,210.08,73.4h10.34l13,29.13q3.2-7.29,6.43-14.6t6.5-14.53h10.34l-21.23,48.11Z" transform="translate(-55.04 -47.93)"/><path class="a" d="M284.05,121V73.4h9.39V121Z" transform="translate(-55.04 -47.93)"/><path class="a" d="M328.83,121V73.4h16.54a25.28,25.28,0,0,1,9.56,1.73,20.62,20.62,0,0,1,7.24,4.9,22,22,0,0,1,4.63,7.56,27.61,27.61,0,0,1,1.63,9.7,26.21,26.21,0,0,1-1.63,9.35,22.47,22.47,0,0,1-4.63,7.52,21.37,21.37,0,0,1-7.24,5,24,24,0,0,1-9.56,1.84Zm9.39-9.46h7.15a13.17,13.17,0,0,0,9.73-4.12A14.05,14.05,0,0,0,358,102.9a16,16,0,0,0,0-11.23,14.27,14.27,0,0,0-2.86-4.56,13.8,13.8,0,0,0-4.32-3.06,13,13,0,0,0-5.41-1.12h-7.15Z" transform="translate(-55.04 -47.93)"/><rect class="b" x="51.96" y="23.03" width="22.96" height="14.66"/><path class="b" d="M67.66,76.2l25.9-24.51s11.55-8.47,22.2,0l-7.7,42.81Z" transform="translate(-55.04 -47.93)"/><rect class="b" x="54.37" y="36.71" width="20.55" height="13.68"/><path class="b" d="M112.59,81.68s6.29,6.95,6.08,14.34l5.43-3.91s3,.22,4.12.43V73.21h-2.39Z" transform="translate(-55.04 -47.93)"/><path class="b" d="M109.91,70.25l2-21S119,52.46,120,58.18l1.76,28.73Z" transform="translate(-55.04 -47.93)"/><circle class="c" cx="29.06" cy="50.86" r="28.56"/><rect class="b" x="120.94" y="70.96" width="22.96" height="14.66" transform="translate(209.81 108.64) rotate(-180)"/><path class="b" d="M183.24,76.2,157.35,51.69s-11.56-8.47-22.21,0l7.7,42.81Z" transform="translate(-55.04 -47.93)"/><rect class="b" x="120.94" y="84.63" width="20.55" height="13.68" transform="translate(207.4 135.02) rotate(-180)"/><path class="b" d="M138.31,81.68S132,88.63,132.23,96l-5.43-3.91s-3,.22-4.12.43V73.21h2.39Z" transform="translate(-55.04 -47.93)"/><path class="b" d="M141,70.25l-2-21s-7.06,3.17-8.07,8.89l-1.76,28.73Z" transform="translate(-55.04 -47.93)"/><circle class="c" cx="112.81" cy="50.86" r="28.56"/><polygon class="d" points="60.78 43.57 63.6 34.07 76.39 34.07 79.97 43.57 60.78 43.57"/><path class="a" d="M103.58,113.45a31.22,31.22,0,0,1-8.36,6.66,22.57,22.57,0,0,1-9.7,2.7,23.35,23.35,0,0,1-10.1-1.57A24.42,24.42,0,0,1,60.1,99.84,23.64,23.64,0,0,1,61.61,90a24.2,24.2,0,0,1,5-8,24.67,24.67,0,0,1,7.49-5.42,23.51,23.51,0,0,1,18.5-.72,26.11,26.11,0,0,1,8.62,5.32l-6.26,7a17.63,17.63,0,0,0-5.45-3.4,14.23,14.23,0,0,0-11.63.48,15.58,15.58,0,0,0-4.53,3.43,14.9,14.9,0,0,0-2.92,4.89A15,15,0,0,0,71,105.05a14.8,14.8,0,0,0,8.25,7.45,14.41,14.41,0,0,0,5.8.87,13.85,13.85,0,0,0,6.21-1.78,21.9,21.9,0,0,0,5.33-4.39Z" transform="translate(-55.04 -47.93)"/><path class="e" d="M163.91,119.55s24.16,2,23-22.76" transform="translate(-55.04 -47.93)"/><path class="f" d="M434.49,77.76l-17.08,23.78a1.11,1.11,0,0,1-.74.34h-.14a.86.86,0,0,1-.73-.34L398.65,77.69v42.68a.83.83,0,0,1-.81.87.88.88,0,0,1-.87-.87V75.28a.94.94,0,0,1,.87-.87.25.25,0,0,1,.2.06,1.31,1.31,0,0,1,.61.27l18,24.93,18-24.93a.83.83,0,0,1,.53-.27.27.27,0,0,1,.2-.06.89.89,0,0,1,.88.87v45.09a.85.85,0,0,1-.88.87.87.87,0,0,1-.8-.87Z" transform="translate(-55.04 -47.93)"/><path class="f" d="M475.5,108.51H452l-4.48,12a.8.8,0,0,1-.74.61,2.79,2.79,0,0,0-.34-.07.86.86,0,0,1-.4-1.14l16.89-45a.73.73,0,0,1,.87-.54,1,1,0,0,1,.87.54l16.88,45a.89.89,0,0,1-.47,1.14c-.13,0-.2.07-.26.07a1.14,1.14,0,0,1-.88-.61Zm-22.79-1.74h22.12L463.77,77.42Z" transform="translate(-55.04 -47.93)"/><path class="f" d="M492.45,75.21a.88.88,0,0,1,.87-.87h13.73a13,13,0,1,1,0,26.06H494.12v20a.83.83,0,0,1-.8.87.88.88,0,0,1-.87-.87Zm14.6,23.45a11.32,11.32,0,1,0,0-22.64H494.12V98.66Z" transform="translate(-55.04 -47.93)"/><path class="f" d="M527.82,113.27a.81.81,0,0,1,1.07-.07c3.69,3,9.78,6.43,16.28,6.43a18.64,18.64,0,0,0,11.06-3.35c2.81-2.07,4.49-4.82,4.49-7.84s-1.54-5.29-4.29-7.16-6.7-3.15-11.39-4l-.13-.07a30,30,0,0,1-11.13-4c-2.81-1.87-4.62-4.49-4.62-7.84.07-6.7,7.3-11.79,15.88-11.79,6.1,0,10.72,3,14.47,5.49a.75.75,0,0,1,.2,1.08.74.74,0,0,1-1,.2c-3.82-2.48-8-5.23-13.67-5.23a17.74,17.74,0,0,0-10.25,3.08,9.08,9.08,0,0,0-4.09,7.17c0,2.75,1.41,4.83,3.95,6.57s6.24,3,10.52,3.75h.14c4.82.94,8.91,2.21,12,4.22s5,4.83,5,8.44c-.07,7.24-7.84,12.73-17.09,12.73-7,0-13.4-3.68-17.22-6.76A.84.84,0,0,1,527.82,113.27Z" transform="translate(-55.04 -47.93)"/><circle class="a" cx="112.97" cy="51.12" r="5.99"/></svg>